<svg preserveAspectRatio="none" width="100%" height="100%" overflow="visible" style="display: block;" viewBox="0 0 66.6563 11.3359" fill="none" xmlns="http://www.w3.org/2000/svg">
<g id="Right Side">
<g id="Battery">
<path id="Rectangle" opacity="0.35" d="M44.9952 0.502367H61.6613C62.8579 0.502367 63.8282 1.47274 63.8282 2.66936V8.66936C63.8281 9.86583 62.8578 10.8354 61.6613 10.8354H44.9952C43.7987 10.8354 42.8284 9.86583 42.8282 8.66936V2.66936C42.8282 1.47274 43.7986 0.502367 44.9952 0.502367Z" fill="var(--fill-0, #081614)" stroke="var(--stroke-0, white)"/>
<path id="Combined Shape" opacity="0.4" d="M65.3282 3.66838V7.66838C66.133 7.32961 66.6563 6.54152 66.6563 5.66838C66.6563 4.79525 66.133 4.00716 65.3282 3.66838" fill="var(--fill-0, #081614)"/>
<path id="Rectangle_2" d="M44.3282 3.3357C44.3282 2.59932 44.9252 2.00237 45.6616 2.00237H60.9949C61.7313 2.00237 62.3282 2.59932 62.3282 3.3357V8.00237C62.3282 8.73875 61.7313 9.3357 60.9949 9.3357H45.6616C44.9252 9.3357 44.3282 8.73875 44.3282 8.00237V3.3357Z" fill="var(--fill-0, #081614)"/>
</g>
<path id="Wifi" d="M27.4471 8.39958C28.7226 7.32069 30.5914 7.32069 31.867 8.39958C31.931 8.4576 31.9687 8.53972 31.9705 8.62614C31.9722 8.71256 31.9375 8.79606 31.8758 8.85661L29.8787 10.8722C29.8202 10.9314 29.7403 10.965 29.657 10.965C29.5738 10.965 29.4939 10.9314 29.4353 10.8722L27.4373 8.85661C27.3757 8.79604 27.3418 8.71246 27.3435 8.62614C27.3454 8.53976 27.383 8.45755 27.4471 8.39958ZM24.7859 5.7111C27.5341 3.15472 31.7897 3.15472 34.5379 5.7111C34.5999 5.77104 34.6356 5.85335 34.6365 5.93961C34.6373 6.02573 34.6035 6.10899 34.5428 6.17008L33.3885 7.3361C33.2695 7.45523 33.0769 7.45794 32.9549 7.34196C32.0524 6.52479 30.8784 6.07235 29.6609 6.07243C28.4442 6.07294 27.2708 6.52529 26.3689 7.34196C26.2469 7.45776 26.0553 7.45511 25.9363 7.3361L24.782 6.17008C24.7212 6.10906 24.6866 6.02578 24.6873 5.93961C24.6881 5.85343 24.724 5.77103 24.7859 5.7111ZM22.1199 3.02946C26.335 -1.00973 32.985 -1.00991 37.2 3.02946C37.2609 3.08938 37.2951 3.17155 37.2957 3.257C37.2962 3.34257 37.2622 3.42479 37.2019 3.48551L36.0467 4.6525C35.9276 4.77223 35.734 4.77331 35.6131 4.65543C34.0071 3.12876 31.8757 2.2776 29.6599 2.2775C27.4441 2.27751 25.3129 3.12885 23.7068 4.65543C23.586 4.77347 23.3923 4.77234 23.2732 4.6525L22.117 3.48551C22.0567 3.42475 22.0227 3.34255 22.0232 3.257C22.0239 3.17153 22.0589 3.08936 22.1199 3.02946Z" fill="var(--fill-0, #081614)"/>
<path id="Mobile Signal" d="M2 7.00417C2.55228 7.00417 3 7.45188 3 8.00417V10.0042C3 10.5565 2.55228 11.0042 2 11.0042H1C0.44777 11.0041 0 10.5564 0 10.0042V8.00417C0 7.45192 0.44777 7.00423 1 7.00417H2ZM6.66406 5.00417C7.21635 5.00417 7.66406 5.45188 7.66406 6.00417V10.0042C7.66406 10.5565 7.21635 11.0042 6.66406 11.0042H5.66406C5.11183 11.0041 4.66406 10.5564 4.66406 10.0042V6.00417C4.66406 5.45192 5.11183 5.00423 5.66406 5.00417H6.66406ZM16 0.336199C16.5523 0.336199 17 0.783914 17 1.3362V10.0032C16.9998 10.5553 16.5522 11.0032 16 11.0032H15C14.4479 11.0031 14.0002 10.5553 14 10.0032V1.3362C14 0.783954 14.4478 0.336264 15 0.336199H16ZM11.3359 2.66823C11.8882 2.66823 12.3359 3.11595 12.3359 3.66823V10.0012C12.3359 10.5535 11.8882 11.0012 11.3359 11.0012H10.3359C9.78371 11.0012 9.33594 10.5535 9.33594 10.0012V3.66823C9.33594 3.11599 9.78371 2.66829 10.3359 2.66823H11.3359Z" fill="var(--fill-0, #081614)"/>
</g>
</svg>
